<?xml version="1.0" encoding="UTF-8"?>
<svg id="Layer_1" xmlns="http://www.w3.org/2000/svg" version="1.1" viewBox="0 0 29 24">
  <!-- Generator: Adobe Illustrator 30.0.0, SVG Export Plug-In . SVG Version: 2.1.1 Build 123)  -->
  <defs>
    <style>
      .st0 {
        fill: #fff;
      }
    </style>
  </defs>
  <path class="st0"
    d="M24.9,8.21c.16-1.59.76-3.04,1.8-4.38l-4-3.11c-1.26.85-2.7,1.32-4.33,1.4-1.5.11-2.91-.12-4.25-.66-1.37.53-2.79.75-4.25.66-1.5-.1-2.94-.54-4.12-1.27L1.72,3.96c.99,1.35,1.54,2.77,1.65,4.25.05.68-.2,1.62-.76,2.83-.26.57-.48,1.15-.67,1.74-.14.48-.22.88-.26,1.17-.02,1.29.45,2.46,1.4,3.5.74.76,1.98,1.59,3.69,2.51,1.87.74,3.32,1.22,4.33,1.43l.84.3c.26.1.54.19.84.3.64.3,1.09.62,1.33.95.28-.36.74-.67,1.36-.95.36-.12.73-.25,1.09-.38l.63-.22c.22-.08.5-.18.84-.29.42-.13.85-.26,1.29-.38.99-.27,1.71-.53,2.17-.76,1.66-.91,2.87-1.74,3.64-2.47.99-1.04,1.47-2.21,1.45-3.53-.06-.59-.38-1.53-.97-2.82-.56-1.25-.81-2.23-.72-2.93Z" />
</svg>