<?xml version="1.0" encoding="UTF-8"?>
<svg id="Layer_1" xmlns="http://www.w3.org/2000/svg" version="1.1" viewBox="0 0 24 24">
  <!-- Generator: Adobe Illustrator 30.0.0, SVG Export Plug-In . SVG Version: 2.1.1 Build 123)  -->
  <defs>
    <style>
      .st0 {
        fill: #fff;
      }
    </style>
  </defs>
  <path class="st0" d="M20.43,8.21c.13-1.59.61-3.04,1.45-4.38l-3.23-3.11c-1.02.85-2.18,1.32-3.5,1.4-1.21.11-2.35-.12-3.43-.66-1.11.53-2.25.75-3.43.66-1.21-.1-2.37-.54-3.33-1.27L1.71,3.96c.8,1.35,1.24,2.77,1.33,4.25.04.68-.16,1.62-.61,2.83-.21.57-.39,1.15-.54,1.74-.11.48-.18.88-.21,1.17-.02,1.29.36,2.46,1.13,3.5.6.76,1.6,1.59,2.98,2.51,1.51.74,2.68,1.22,3.5,1.43l.68.3c.21.1.44.19.68.3.52.3.88.62,1.07.95.23-.36.6-.67,1.1-.95.29-.12.59-.25.88-.38l.51-.22c.18-.08.4-.18.68-.29.34-.13.69-.26,1.04-.38.8-.27,1.38-.53,1.75-.76,1.34-.91,2.32-1.74,2.94-2.47.8-1.04,1.19-2.21,1.17-3.53-.05-.59-.31-1.53-.78-2.82-.45-1.25-.65-2.23-.58-2.93Z"/>
</svg>