<?xml version="1.0" encoding="UTF-8"?>
<svg id="Layer_1" xmlns="http://www.w3.org/2000/svg" version="1.1" viewBox="0 0 24 24">
  <!-- Generator: Adobe Illustrator 30.0.0, SVG Export Plug-In . SVG Version: 2.1.1 Build 123)  -->
  <defs>
    <style>
      .st0 {
        fill: #fff;
      }
    </style>
  </defs>
  <path class="st0" d="M22.24,6.61c-.2-.83-.46-1.64-.79-2.43-.11-.28-.24-.55-.35-.83-.07-.15-.13-.31-.18-.47-.02-.06-.02-.06-.01-.04-.2-.53-1.05-.87-1.54-.39-.73.72-1.61,1.03-2.7,1.23-.67.12-2.78-.26-3.32-.7-.08-.06-.16-.13-.23-.2-.02-.02-.04-.04-.06-.06-.05-.05-.09-.1-.14-.15h0c-.04-.05-.09-.1-.15-.14-.04-.03-.08-.05-.12-.07-.14-.1-.33-.13-.52-.13-.19,0-.38.03-.52.13-.04.02-.08.05-.12.07-.06.04-.11.09-.15.14h0c-.04.05-.09.1-.14.15-.02.02-.04.04-.06.06-.07.07-.15.13-.23.2-.53.44-2.65.82-3.32.7-1.09-.2-1.97-.51-2.7-1.23-.49-.48-1.34-.14-1.53.39,0-.02,0-.02-.02.04-.01.05-.03.09-.05.13-.04.11-.09.22-.13.34-.12.28-.24.55-.35.83-.33.79-.6,1.6-.79,2.43-.55,2.36-.8,7.03.17,9.26,1.64,3.82,4.93,5.05,9.21,7.05.21.15.47.22.73.2.26.02.52-.05.73-.2,4.28-1.99,7.57-3.22,9.21-7.05.96-2.23.72-6.9.17-9.26"/>
  <g>
    <path d="M22.6,8.94c-.09-.88-.21-1.69-.36-2.32-.2-.83-.46-1.64-.79-2.43-.11-.28-.24-.55-.35-.83-.07-.15-.13-.31-.18-.47-.02-.06-.02-.06-.01-.04-.2-.53-1.05-.87-1.54-.39-.74.72-1.61,1.03-2.7,1.23-.67.12-2.78-.26-3.31-.7-.08-.06-.16-.13-.23-.2-.02-.02-.04-.04-.06-.06-.05-.05-.09-.1-.14-.15h0c-.04-.05-.09-.1-.15-.14-.04-.03-.08-.05-.12-.07-.14-.1-.33-.13-.52-.13-.19,0-.38.03-.52.13-.04.02-.08.05-.12.07-.06.04-.11.09-.15.14h0c-.04.05-.09.1-.14.15-.02.02-.04.04-.06.06-.07.07-.15.13-.23.2-.53.44-2.65.82-3.32.7-1.09-.2-1.97-.51-2.7-1.23-.49-.48-1.34-.14-1.54.39,0-.02,0-.02-.01.04-.05.16-.12.31-.18.47-.12.28-.24.55-.35.83-.33.79-.6,1.6-.79,2.43-.15.64-.27,1.44-.36,2.32h20.95"/>
    <path d="M22.33,7.05c-.03-.15-.06-.3-.09-.44-.2-.83-.46-1.64-.79-2.43-.11-.28-.24-.55-.35-.83-.07-.15-.13-.31-.18-.47-.02-.06-.02-.06-.01-.04-.2-.53-1.05-.87-1.54-.39-.73.72-1.61,1.03-2.7,1.23-.67.12-2.78-.26-3.32-.7-.08-.06-.16-.13-.23-.2-.02-.02-.04-.04-.06-.06-.05-.05-.09-.1-.14-.15h0c-.04-.05-.09-.1-.15-.14-.04-.03-.08-.05-.12-.07-.14-.1-.33-.13-.52-.13-.19,0-.38.03-.52.13-.04.02-.08.05-.12.07-.06.04-.11.09-.15.14h0c-.04.05-.09.1-.14.15-.02.02-.04.04-.06.06-.07.07-.15.13-.23.2-.53.44-2.65.82-3.32.7-1.09-.2-1.97-.51-2.7-1.23-.49-.48-1.34-.14-1.53.39,0-.02,0-.02-.01.04-.01.05-.03.09-.05.13-.04.11-.09.22-.13.34-.12.28-.24.55-.35.83-.33.79-.6,1.6-.79,2.43-.03.15-.06.29-.09.44h20.41"/>
  </g>
</svg>