<?xml version="1.0" encoding="UTF-8"?>
<svg id="Layer_1" xmlns="http://www.w3.org/2000/svg" version="1.1" viewBox="0 0 29 24">
  <!-- Generator: Adobe Illustrator 30.0.0, SVG Export Plug-In . SVG Version: 2.1.1 Build 123)  -->
  <defs>
    <style>
      .st0 {
        fill: #fff;
      }
    </style>
  </defs>
  <path class="st0"
    d="M26.02,6.61c-.23-.83-.55-1.64-.94-2.43-.14-.28-.28-.55-.42-.83-.08-.15-.15-.31-.21-.47-.02-.06-.02-.06-.02-.04-.24-.53-1.24-.87-1.82-.39-.87.72-1.9,1.03-3.2,1.23-.79.12-3.29-.26-3.92-.7-.09-.06-.18-.13-.27-.2-.02-.02-.05-.04-.07-.06-.06-.05-.11-.1-.16-.15h0c-.05-.05-.11-.1-.18-.14-.04-.03-.09-.05-.15-.07-.17-.1-.39-.13-.61-.13-.22,0-.44.03-.61.13-.05.02-.1.05-.15.07-.07.04-.13.09-.18.14h0c-.05.05-.11.1-.16.15-.02.02-.05.04-.07.06-.09.07-.18.13-.27.2-.63.44-3.13.82-3.92.7-1.29-.2-2.33-.51-3.2-1.23-.58-.48-1.58-.14-1.81.39,0-.02,0-.02-.02.04-.02.05-.04.09-.06.13-.05.11-.1.22-.16.34-.14.28-.28.55-.42.83-.39.79-.71,1.6-.94,2.43-.65,2.36-.94,7.03.2,9.26,1.94,3.82,5.84,5.05,10.9,7.05.25.15.56.22.87.2.31.02.61-.05.87-.2,5.06-1.99,8.95-3.22,10.9-7.05,1.14-2.23.85-6.9.2-9.26" />
  <g>
    <path
      d="M26.45,8.94c-.1-.88-.25-1.69-.43-2.32-.23-.83-.55-1.64-.94-2.43-.14-.28-.28-.55-.41-.83-.08-.15-.15-.31-.21-.47-.02-.06-.02-.06-.02-.04-.24-.53-1.24-.87-1.82-.39-.87.72-1.9,1.03-3.2,1.23-.79.12-3.29-.26-3.92-.7-.09-.06-.19-.13-.27-.2-.02-.02-.05-.04-.07-.06-.06-.05-.11-.1-.16-.15h0c-.05-.05-.11-.1-.18-.14-.05-.03-.1-.05-.15-.07-.17-.1-.39-.13-.61-.13-.22,0-.44.03-.61.13-.05.02-.1.05-.15.07-.07.04-.13.09-.18.14h0c-.05.05-.11.1-.16.15-.02.02-.05.04-.07.06-.09.07-.18.13-.27.2-.63.44-3.13.82-3.92.7-1.29-.2-2.33-.51-3.2-1.23-.58-.48-1.58-.14-1.82.39,0-.02,0-.02-.02.04-.06.16-.14.31-.21.47-.14.28-.28.55-.41.83-.39.79-.7,1.6-.94,2.43-.18.64-.32,1.44-.43,2.32h24.78" />
    <path
      d="M26.13,7.05c-.04-.15-.07-.3-.11-.44-.23-.83-.55-1.64-.94-2.43-.14-.28-.28-.55-.42-.83-.08-.15-.15-.31-.21-.47-.02-.06-.02-.06-.02-.04-.24-.53-1.24-.87-1.82-.39-.87.72-1.9,1.03-3.2,1.23-.79.12-3.29-.26-3.92-.7-.09-.06-.18-.13-.27-.2-.02-.02-.05-.04-.07-.06-.06-.05-.11-.1-.16-.15h0c-.05-.05-.11-.1-.18-.14-.04-.03-.09-.05-.15-.07-.17-.1-.39-.13-.61-.13-.22,0-.44.03-.61.13-.05.02-.1.05-.15.07-.07.04-.13.09-.18.14h0c-.05.05-.11.1-.16.15-.02.02-.05.04-.07.06-.09.07-.18.13-.27.2-.63.44-3.13.82-3.92.7-1.29-.2-2.33-.51-3.2-1.23-.58-.48-1.58-.14-1.81.39,0-.02,0-.02-.02.04-.02.05-.04.09-.06.13-.05.11-.1.22-.16.34-.14.28-.28.55-.42.83-.39.79-.71,1.6-.94,2.43-.04.15-.08.29-.11.44h24.14" />
  </g>
</svg>